Coordinates
version=1
nRows=21
nColumns=12
inDegrees=yes

Units are S.I. units (second, meters, Newtons, ...)
Angles are in degrees

endheader
time	SC_y	SC_z	SC_x	AC_y	AC_z	AC_x	GH_y	GH_z	GH_yy	EL_x	PS_y
       0.0              -58.11          38.18          9.539          64.88           6.49          13.81         -127.2          49.34         -171.6          40.52          159.4
   0.02131              -58.11          38.18          9.546          64.88          6.487           13.8         -127.2          49.33         -171.6          40.53          159.4
   0.04263              -58.11          38.17          9.553          64.88          6.484           13.8         -127.1          49.33         -171.5          40.53          159.4
   0.06394               -58.1          38.17          9.561          64.88           6.48           13.8         -127.1          49.32         -171.5          40.54          159.4
   0.08526               -58.1          38.16          9.569          64.87          6.476          13.79         -127.1          49.31         -171.4          40.55          159.4
    0.1066               -58.1          38.15          9.577          64.87          6.472          13.79         -127.1           49.3         -171.4          40.56          159.4
    0.1279               -58.1          38.15          9.586          64.87          6.468          13.78         -127.1          49.29         -171.3          40.57          159.4
    0.1492              -58.09          38.14          9.596          64.87          6.463          13.77         -127.1          49.29         -171.3          40.58          159.4
    0.1705              -58.09          38.13          9.607          64.86          6.458          13.77         -127.1          49.27         -171.2          40.59          159.4
    0.1918              -58.09          38.12          9.618          64.86          6.453          13.76         -127.0          49.26         -171.2           40.6          159.4
    0.2131              -58.08          38.11           9.63          64.86          6.447          13.76         -127.0          49.25         -171.1          40.62          159.4
    0.2345              -58.08           38.1          9.643          64.85           6.44          13.75         -127.0          49.24         -171.0          40.63          159.4
    0.2558              -58.07          38.09          9.657          64.85          6.434          13.74         -127.0          49.23         -171.0          40.65          159.4
    0.2771              -58.07          38.08          9.672          64.85          6.426          13.73         -127.0          49.21         -170.9          40.66          159.4
    0.2984              -58.06          38.07          9.689          64.84          6.418          13.72         -126.9           49.2         -170.8          40.68          159.4
    0.3197              -58.06          38.05          9.706          64.84           6.41          13.71         -126.9          49.18         -170.7           40.7          159.4
     0.341              -58.05          38.04          9.726          64.83          6.401           13.7         -126.9          49.16         -170.6          40.72          159.3
    0.3623              -58.04          38.02          9.747          64.83           6.39          13.69         -126.8          49.14         -170.5          40.74          159.3
    0.3837              -58.04           38.0           9.77          64.82          6.379          13.67         -126.8          49.12         -170.3          40.77          159.3
     0.405              -58.03          37.98          9.795          64.81          6.367          13.66         -126.8          49.09         -170.2           40.8          159.3
    0.4263              -58.02          37.96          9.822          64.81          6.354          13.64         -126.7          49.07         -170.1          40.82          159.3
